<?xml version="1.0" encoding="UTF-8" standalone="no"?>
<!-- Created with Inkscape (http://www.inkscape.org/) -->

<svg
   width="5in"
   height="5in"
   viewBox="0 0 127 127"
   version="1.1"
   id="svg1"
   xmlns="http://www.w3.org/2000/svg"
   xmlns:svg="http://www.w3.org/2000/svg">
  <defs
     id="defs1" />
  <g
     id="layer1">
    <path
       fill="#cc2e9c"
       d="m 99.982138,10.210133 c 0.659612,-0.103717 1.689372,-0.09737 2.375962,-0.05345 12.90373,0.866775 19.2786,15.42124 11.53345,25.719352 -6.52171,8.671454 -22.215742,5.478462 -25.802962,16.810831 -1.59861,5.04958 3.26258,9.245867 8.382,8.02164 5.898362,-1.41049 11.230772,-5.93354 17.472032,-4.47119 7.70704,1.97035 9.32947,12.204957 3.2758,17.116157 -8.05338,6.53335 -17.500602,-3.04932 -25.353172,1.74678 -1.55707,0.94985 -2.65853,2.49449 -3.04905,4.27619 -0.26221,1.18983 -0.18971,2.76702 0.25135,3.92086 2.34262,6.12802 9.28635,5.10064 12.270322,9.87743 0.98028,1.56951 1.13427,3.51552 0.65802,5.27288 -0.53949,1.919547 -1.83172,3.539857 -3.582992,4.493417 -1.05939,0.57891 -2.25161,0.87074 -3.45864,0.84666 -6.18331,-0.12197 -8.20552,-8.152337 -14.28908,-9.670517 -7.27022,-1.81451 -10.15974,4.25503 -8.82227,10.402357 0.73422,3.21892 2.44687,6.27063 1.37716,9.63189 -1.78091,5.59673 -9.542725,6.79212 -13.088935,2.17329 -2.86094,-3.54409 -0.65484,-7.88141 -0.25479,-11.81841 0.49662,-4.883147 -2.03068,-10.564807 -7.88485,-9.294537 -3.90022,0.8464 -6.8924,4.20502 -8.332,7.811547 -1.59517,3.99627 -2.68552,8.56668 -7.73668,9.32339 -1.30042,0.18574 -2.30954,-0.0251 -3.58272,-0.38735 -2.6199,-1.14697 -4.67968,-3.20781 -4.85881,-6.25448 -0.44503,-7.571587 7.91316,-8.224307 11.74724,-13.040517 2.28097,-2.86465 2.99085,-7.66313 -0.21273,-10.25711 -4.34102,-3.32607 -9.83191,-0.2995 -13.77844,2.21272 -3.64702,2.32145 -7.86791,3.75285 -11.74168,0.88661 -1.9468,-1.44568 -3.05435,-3.40227 -3.3573,-5.82824 -0.3021497,-2.41802 0.30745,-4.5892 1.84521,-6.50822 3.70231,-4.4741 8.54101,-3.00434 13.44136,-2.33442 2.04946,0.33047 3.88197,0.17436 5.91741,0.0532 5.23584,-0.31167 8.39919,-4.65005 7.62079,-9.782167 -0.8726,-5.7531 -7.72874,-8.11662 -12.46478,-9.87637 -1.93332,-0.71834 -4.01109,-1.08585 -5.7748,-2.35558 -1.8378,-1.33218 -3.07393,-3.337461 -3.43826,-5.577952 -0.73634,-4.817534 2.11799,-9.337675 7.15195,-9.941454 5.77056,-0.69215 7.74409,3.28242 10.86803,7.099035 1.388,1.719792 2.98132,3.263106 4.74424,4.595283 8.24838,6.130398 14.87382,0.733168 11.77052,-8.661664 -1.01468,-3.072077 -3.29962,-6.283325 -3.79757,-9.380802 -0.35163,-2.113227 0.17383,-4.278313 1.45468,-5.995459 2.86015,-3.831695 8.09731,-4.381764 11.80042,-1.417108 5.211225,4.172479 1.55416,10.110258 2.29394,15.615179 0.661975,4.928129 3.441955,8.237538 8.798445,7.408333 8.05498,-1.397529 9.96527,-12.032985 12.25418,-18.502576 2.74902,-7.770284 6.92441,-12.651846 15.358,-13.905442 z"
       id="path2"
       style="stroke-width:0.264583" />
  </g>
</svg>
