<?xml version="1.0" encoding="UTF-8" standalone="no"?>
<svg
   width="1024"
   height="1024"
   viewBox="0 0 1024 1024"
   version="1.1"
   id="svg15"
   sodipodi:docname="mapsplat_logo.svg"
   inkscape:version="1.4.3 (0d15f75, 2025-12-25)"
   inkscape:export-filename="mapsplat_logo.png"
   inkscape:export-xdpi="44.312851"
   inkscape:export-ydpi="44.312851"
   xmlns:inkscape="http://www.inkscape.org/namespaces/inkscape"
   xmlns:sodipodi="http://sodipodi.sourceforge.net/DTD/sodipodi-0.dtd"
   xmlns="http://www.w3.org/2000/svg"
   xmlns:svg="http://www.w3.org/2000/svg">
  <defs
     id="defs15" />
  <sodipodi:namedview
     id="namedview15"
     pagecolor="#ffffff"
     bordercolor="#000000"
     borderopacity="0.25"
     inkscape:showpageshadow="2"
     inkscape:pageopacity="0.0"
     inkscape:pagecheckerboard="true"
     inkscape:deskcolor="#d1d1d1"
     inkscape:zoom="0.79394531"
     inkscape:cx="511.37024"
     inkscape:cy="512"
     inkscape:window-width="1920"
     inkscape:window-height="1094"
     inkscape:window-x="-11"
     inkscape:window-y="-11"
     inkscape:window-maximized="1"
     inkscape:current-layer="svg15" />
  <path
     fill="#CC2E9C"
     d="M641.295 195.668C643.788 195.276 647.68 195.3 650.275 195.466C699.045 198.742 723.139 253.751 693.866 292.673C669.217 325.447 609.901 313.379 596.343 356.21C590.301 375.295 608.674 391.155 628.023 386.528C650.316 381.197 670.47 364.102 694.059 369.629C723.188 377.076 729.32 415.758 706.44 434.32C676.002 459.013 640.296 422.795 610.617 440.922C604.732 444.512 600.569 450.35 599.093 457.084C598.102 461.581 598.376 467.542 600.043 471.903C608.897 495.064 635.141 491.181 646.419 509.235C650.124 515.167 650.706 522.522 648.906 529.164C646.867 536.419 641.983 542.543 635.364 546.147C631.36 548.335 626.854 549.438 622.292 549.347C598.922 548.886 591.279 518.535 568.286 512.797C540.808 505.939 529.887 528.879 534.942 552.113C537.717 564.279 544.19 575.813 540.147 588.517C533.416 609.67 504.08 614.188 490.677 596.731C479.864 583.336 488.202 566.943 489.714 552.063C491.591 533.607 482.039 512.133 459.913 516.934C445.172 520.133 433.863 532.827 428.422 546.458C422.393 561.562 418.272 578.836 399.181 581.696C394.266 582.398 390.452 581.601 385.64 580.232C375.738 575.897 367.953 568.108 367.276 556.593C365.594 527.976 397.184 525.509 411.675 507.306C420.296 496.479 422.979 478.343 410.871 468.539C394.464 455.968 373.711 467.407 358.795 476.902C345.011 485.676 329.058 491.086 314.417 480.253C307.059 474.789 302.873 467.394 301.728 458.225C300.586 449.086 302.89 440.88 308.702 433.627C322.695 416.717 340.983 422.272 359.504 424.804C367.25 426.053 374.176 425.463 381.869 425.005C401.658 423.827 413.614 407.43 410.672 388.033C407.374 366.289 381.461 357.356 363.561 350.705C356.254 347.99 348.401 346.601 341.735 341.802C334.789 336.767 330.117 329.188 328.74 320.72C325.957 302.512 336.745 285.428 355.771 283.146C377.581 280.53 385.04 295.552 396.847 309.977C402.093 316.477 408.115 322.31 414.778 327.345C445.953 350.515 470.994 330.116 459.265 294.608C455.43 282.997 446.794 270.86 444.912 259.153C443.583 251.166 445.569 242.983 450.41 236.493C461.22 222.011 481.014 219.932 495.01 231.137C514.706 246.907 500.884 269.349 503.68 290.155C506.182 308.781 516.689 321.289 536.934 318.155C567.378 312.873 574.598 272.676 583.249 248.224C593.639 218.856 609.42 200.406 641.295 195.668Z"
     id="path2" />
  <path
     fill="#141213"
     d="M425.287 654.202C454.708 651.405 479.578 675.788 483.121 704.2C484.999 719.121 480.83 734.173 471.541 746.001C457.534 763.698 431.409 773.079 409.639 761.827C407.397 760.668 403.596 757.091 401.445 755.341C401.461 751.316 401.845 728.296 400.65 726.511C399.155 725.596 399.918 725.709 398.312 726.012C396.779 728.778 397.869 767.114 397.893 773.489C397.928 785.076 397.895 796.664 397.793 808.251L370.003 808.392C369.89 758.122 369.518 706.102 370.316 655.907L406.239 655.997C401.891 660.319 392.701 674.638 394.968 680.715L395.889 680.97C398.547 679.104 398.708 675.879 399.846 672.973C404.706 660.559 412.458 655.371 425.287 654.202Z"
     id="path3" />
  <path
     fill="#FFFEFE"
     d="M425.702 681.708C441.262 681.253 454.274 693.439 454.839 708.995C455.404 724.552 443.309 737.649 427.757 738.323C412.05 739.003 398.793 726.762 398.223 711.05C397.653 695.339 409.987 682.169 425.702 681.708Z"
     id="path4" />
  <path
     fill="#141213"
     d="M641.193 654.198C641.449 654.173 641.706 654.148 641.963 654.123C655.457 653.079 668.822 657.381 679.173 666.102C691.099 675.998 698.564 690.258 699.899 705.697C701.07 720.566 696.338 735.297 686.726 746.702C672.204 763.903 645.753 772.807 625.17 760.889C623.001 759.633 620.538 757.379 618.606 755.73C618.578 752.367 618.862 730.757 618.116 729.023C616.515 728.943 617.26 728.762 615.844 729.725C614.064 733.13 615.052 739.127 615.034 743.127L614.978 775.75L614.924 808.43L587.49 808.237L587.081 655.964C598.946 655.872 610.81 655.855 622.675 655.911C618.193 660.489 609.407 674.04 611.591 680.279L612.534 680.59C616.119 677.922 618.811 666.086 622.742 661.742C627.898 656.045 634.043 654.93 641.193 654.198Z"
     id="path5" />
  <path
     fill="#FFFEFE"
     d="M637.937 681.646C653.62 678.731 668.685 689.118 671.536 704.813C674.387 720.508 663.938 735.53 648.232 738.317C632.616 741.088 617.699 730.712 614.864 715.108C612.03 699.503 622.345 684.544 637.937 681.646Z"
     id="path6" />
  <path
     fill="#141213"
     d="M295.071 654.212C305.014 653.501 321.888 655.546 324.285 667.227C325.036 670.886 324.767 674.662 327.472 677.524L328.504 677.263C330.648 671.021 326.17 660.877 322.508 655.762C332.789 655.805 343.07 655.762 353.35 655.63C353.277 667.218 352.201 731.798 354.778 737.757C356.262 741.188 358.964 743.11 362.381 744.348L362.415 767.494C343.52 766.302 333.168 760.17 328.677 740.883C328.29 737.719 328.246 734.155 326.004 731.884L325.24 732.509C323.559 737.853 325.026 743.195 326.429 748.402C319.288 758.888 314.315 765.569 300.713 766.479C285.57 767.491 272.247 763.15 260.76 753.241C249.33 743.494 242.354 729.52 241.433 714.527C239.309 680.935 261.684 656.331 295.071 654.212Z"
     id="path7" />
  <path
     fill="#FFFEFE"
     d="M295.493 681.291C311.29 680.016 325.17 691.692 326.62 707.473C328.069 723.255 316.548 737.263 300.783 738.888C290.429 739.954 280.301 735.375 274.262 726.896C268.224 718.418 267.207 707.349 271.6 697.912C275.993 688.476 285.118 682.128 295.493 681.291Z"
     id="path8" />
  <path
     fill="#141213"
     d="M807.952 654.205C847.139 652.268 835.688 672.293 842.658 677.537C844.256 677.304 843.565 677.632 844.755 676.427C845.759 669.114 841.565 662.07 838.157 655.858C848.131 655.965 858.437 655.769 868.435 655.706L868.378 702.846C868.355 710.718 868.299 718.676 868.335 726.545C868.379 736.452 868.432 739.914 877.476 744.895L877.5 767.519C858.484 766.26 849.225 760.553 843.851 741.644C843.667 740.425 843.47 739.209 843.259 737.994C842.893 735.915 842.626 733.915 840.762 732.619L840.175 733.112C838.647 738.262 840.38 743.236 841.751 748.222C840.135 750.395 838.495 752.55 836.833 754.688C830.904 762.307 826.35 765.482 816.58 766.622C802.55 768.26 789.049 763.567 778.162 754.824C766.033 745.07 758.315 730.865 756.731 715.381C755.316 700.734 759.758 686.122 769.084 674.74C779.586 661.987 791.617 655.689 807.952 654.205Z"
     id="path9" />
  <path
     fill="#FFFEFE"
     d="M808.286 681.907C823.916 679.31 838.696 689.861 841.317 705.487C843.938 721.112 833.409 735.909 817.788 738.553C802.133 741.204 787.298 730.648 784.671 714.988C782.044 699.329 792.623 684.51 808.286 681.907Z"
     id="path10" />
  <path
     fill="#141213"
     d="M128.979 653.703C146.361 654.211 156.532 662.227 162.283 678.9C163.493 682.408 162.348 686.001 165.936 687.904C169.19 686.154 164.321 672.974 162.673 670.205C172.628 658.551 183.324 650.259 199.935 654.844C230.724 663.342 226.067 692.501 225.987 717.524C225.949 729.428 225.953 736.044 239.09 739.181L239.08 766.937C176.98 763.526 210.063 703.778 194.677 687.558C191.447 684.152 187.167 682.398 182.509 682.285C178.555 682.19 174.081 683.258 171.217 686.141C169.128 688.243 167.8 691.038 167.146 693.906C165.801 699.805 166.446 706.607 166.475 712.625L166.549 737.75L166.505 766.538L139.34 766.525C138.246 744.827 140.022 722.173 138.331 700.475C138.076 697.204 136.252 690.679 134.137 688.239C127.051 680.064 109.683 680.708 107.663 693.215C106.458 701.505 106.869 710.392 106.855 718.739C106.912 734.667 106.841 750.595 106.642 766.522L78.7208 766.626L78.5782 655.804C88.9084 655.972 99.1259 655.405 109.529 655.79C105.165 661.294 97.9202 671.369 99.5538 678.834C100.378 678.622 101.713 678.51 102.029 677.697C107.712 663.062 110.799 655.27 128.979 653.703Z"
     id="path11" />
  <path
     fill="#141213"
     d="M528.503 653.675C543.619 651.336 567.598 657.974 576.364 671.407C571.32 676.94 561.042 684.68 554.899 689.579C549.79 684.151 544.253 681.092 536.747 680.116C531.746 679.466 520.52 681.699 520.208 687.976C521.963 693.254 533.141 695.624 537.903 696.967C555.844 702.024 576.028 710.173 575.587 732.271C575.39 742.173 572.873 748.715 565.793 755.763C555.715 765.794 544.128 767.143 530.491 766.985C511.608 765.17 501.795 759.53 487.113 748.152C494.171 742.641 501.396 736.136 508.043 730.156C515.116 736.232 528.492 741.765 537.951 741.777C541.222 741.828 545.672 741.331 548.016 738.666C555.514 730.137 540.786 726.995 535.518 725.274C517.181 719.287 496.278 716.179 492.537 693.539C489.883 677.473 498.602 664.927 512.707 658.207C518.176 655.587 522.504 654.536 528.503 653.675Z"
     id="path12" />
  <path
     fill="#141213"
     d="M714.325 619.258C721.8 618.921 730.693 618.969 738.146 619.251C739.319 653.642 737.232 688.685 738.739 723.096C739.236 734.446 744.706 739.857 755.525 741.363C755.647 747.321 756.246 761.298 755.451 766.415C754.387 767.507 754.379 767.144 752.376 767.297C726.592 765.18 712.091 749.212 711.227 722.958C710.675 706.196 711.135 689.123 711.099 672.327C711.035 660.517 711.042 648.707 711.119 636.898C711.112 632.478 710.021 624.18 711.689 619.88C711.91 619.311 713.589 619.341 714.325 619.258Z"
     id="path13" />
  <path
     fill="#141213"
     d="M883.368 618.971L910.958 619.017L911.086 655.709C922.409 655.771 933.733 655.745 945.056 655.631L945.144 682.579L883.227 682.924C883.388 661.607 883.435 640.289 883.368 618.971Z"
     id="path14" />
  <path
     fill="#141213"
     d="M883.416 686.427L910.93 686.406C910.955 701.084 907.673 722.302 918.99 733.382C926.434 740.671 935.597 739.891 945.092 739.534L945.074 766.32C928.945 768.272 909.65 763.311 898.125 751.392C880.679 733.349 883.137 709.441 883.416 686.427Z"
     id="path15" />
</svg>
